<svg xmlns="http://www.w3.org/2000/svg" viewBox="379.334 497.659 1205.286 306.251"><g><path style="stroke:none;stroke-width:1;stroke-dasharray:none;stroke-linecap:butt;stroke-dashoffset:0;stroke-linejoin:miter;stroke-miterlimit:4;fill:#b53a25;fill-rule:nonzero;opacity:1" stroke-linecap="round" d="M 1193.92 288.58 L 1126.37 337.66 C 1153.37 349.37 1180.87 361.53 1192.57 370.08 L 1248.86 307.49 C 1233.1 306.14 1208.78 297.14 1193.92 288.58 Z" transform="matrix(0.315061, 0, 0, 0.315061, 792.512512, 601.458984) translate(-1187.61, -329.33)" vector-effect="non-scaling-stroke"/></g><g><path style="stroke:none;stroke-width:1;stroke-dasharray:none;stroke-linecap:butt;stroke-dashoffset:0;stroke-linejoin:miter;stroke-miterlimit:4;fill:#f74700;fill-rule:nonzero;opacity:1" stroke-linecap="round" d="M 675.57 142.68 L 720.36 81.4503 L 719.71 80.9902 L 600.37 134.13 C 604.88 187.26 604.88 232.74 604.88 323.71 C 635.05 332.71 683.68 351.62 722.88 370.08 L 775.57 307.49 C 744.5 302.99 695.42 292.18 672.45 278.67 C 672.45 221.03 672.45 189.06 675.6 142.67 L 675.57 142.68 Z" transform="matrix(0.315061, 0, 0, 0.315061, 601.349304, 567.70813) translate(-687.97, -225.54)" vector-effect="non-scaling-stroke"/></g><g><path style="stroke:none;stroke-width:1;stroke-dasharray:none;stroke-linecap:butt;stroke-dashoffset:0;stroke-linejoin:miter;stroke-miterlimit:4;fill:#f74700;fill-rule:nonzero;opacity:1" stroke-linecap="round" d="M 440.35 308.08 L 431.93 305.24 C 407.16 298.94 382.85 290.83 362.59 278.67 C 362.59 221.03 363.59 188.95 366.73 142.57 L 366.9 142.57 L 411.26 82 L 409.87 81 L 290.54 134.13 C 295.04 187.26 295.04 232.74 295.04 323.71 C 320.26 330.01 355.83 351.62 388.7 370.08 C 388.7 370.08 429.23 321.9 439.14 310.19 L 440.35 308.08 Z" transform="matrix(0.315061, 0, 0, 0.315061, 498.481812, 567.70813) translate(-365.45, -225.54)" vector-effect="non-scaling-stroke"/></g><g><path style="stroke:none;stroke-width:1;stroke-dasharray:none;stroke-linecap:butt;stroke-dashoffset:0;stroke-linejoin:miter;stroke-miterlimit:4;fill:#b53a25;fill-rule:nonzero;opacity:1" stroke-linecap="round" d="M 79.3199 90.8999 L 190.54 104.4 L 205.86 27.8499 L 71.1499 14.3799 L 79.2899 91.3099 L 79.3199 90.8999 Z" transform="matrix(0.315061, 0, 0, 0.315061, 426.135986, 515.250366) translate(-138.5, -59.39)" vector-effect="non-scaling-stroke"/></g><g><path style="stroke:none;stroke-width:1;stroke-dasharray:none;stroke-linecap:butt;stroke-dashoffset:0;stroke-linejoin:miter;stroke-miterlimit:4;fill:#b53a25;fill-rule:nonzero;opacity:1" stroke-linecap="round" d="M 220.72 399.81 C 216.21 318.75 216.21 260.66 216.21 169.7 C 190.99 163.4 138.31 136.83 119.4 123.31 C 119.4 123.31 93.5299 152.09 76.8599 170.66 L 76.8599 190 C 100.64 197.18 124.86 205.72 144.17 218.74 C 144.17 290.79 144.17 327.74 139.66 408.74 L 220.72 399.81 Z" transform="matrix(0.315061, 0, 0, 0.315061, 429.365265, 580.664856) translate(-148.79, -266.02)" vector-effect="non-scaling-stroke"/></g><g><path style="stroke:none;stroke-width:1;stroke-dasharray:none;stroke-linecap:butt;stroke-dashoffset:0;stroke-linejoin:miter;stroke-miterlimit:4;fill:#f74700;fill-rule:nonzero;opacity:1" stroke-linecap="round" d="M 1107 552.75 L 1106.09 657.67 C 1081.78 674.79 1071.87 683.8 1052.51 700.46 L 995.32 677.94 L 995.32 718.47 C 1018.32 731.98 1067.32 742.79 1098.44 747.29 L 1045.75 809.88 C 1006.58 791.42 957.94 772.51 927.75 763.5 C 927.75 672.5 927.75 627.05 923.25 573.92 L 1042.59 520.79 C 1061.52 534.29 1079.07 539.7 1107 552.75 Z M 1050.25 658.12 L 1050.25 603.19 C 1034.04 595.09 1019.18 589.19 998.47 582.48 C 996.67 609.94 995.77 632.48 995.32 658.12 L 1050.25 658.12 Z" transform="matrix(0.315061, 0, 0, 0.315061, 951.539673, 567.314087) translate(-1015.13, -665.34)" vector-effect="non-scaling-stroke"/></g><g><path style="stroke:none;stroke-width:1;stroke-dasharray:none;stroke-linecap:butt;stroke-dashoffset:0;stroke-linejoin:miter;stroke-miterlimit:4;fill:#b53a25;fill-rule:nonzero;opacity:1" stroke-linecap="round" d="M 1001.38 582.48 L 1001.31 583.42 C 1020.53 589.78 1034.81 595.47 1050.25 603.19 L 1050.25 658.12 L 1105.46 658.12 L 1106.09 657.67 L 1107 552.75 C 1080.35 540.3 1063.15 534.75 1045.2 522.58 L 1001.38 582.48 Z" transform="matrix(0.315061, 0, 0, 0.315061, 968.158997, 543.842041) translate(-1054.15, -590.35)" vector-effect="non-scaling-stroke"/></g><g><path style="stroke:none;stroke-width:1;stroke-dasharray:none;stroke-linecap:butt;stroke-dashoffset:0;stroke-linejoin:miter;stroke-miterlimit:4;fill:#f74700;fill-rule:nonzero;opacity:1" stroke-linecap="round" d="M 79.2898 91.3099 L 71.1498 14.3799 L 70.7598 14.3799 C 50.0498 31.4999 24.8298 51.2999 2.31978 65.2599 C 6.81978 146.32 5.01977 276.01 0.509766 361.12 L 81.1198 361.12 C 78.9798 320.47 77.4198 273.62 76.8598 226.81 L 76.8598 144.93 L 79.2898 91.3099 Z" transform="matrix(0.315061, 0, 0, 0.315061, 395.062988, 555.460083) translate(-40.81, -187.75)" vector-effect="non-scaling-stroke"/></g><g><path style="stroke:none;stroke-width:1;stroke-dasharray:none;stroke-linecap:butt;stroke-dashoffset:0;stroke-linejoin:miter;stroke-miterlimit:4;fill:#f74700;fill-rule:nonzero;opacity:1" stroke-linecap="round" d="M 917.62 138.29 C 919.44 86.2898 919.62 46.7598 921.46 14.3398 L 844.91 23.3398 C 849.41 104.34 848.52 224.17 848.52 361.07 L 917 361.07 L 917 239.5 L 917.62 138.29 Z" transform="matrix(0.315061, 0, 0, 0.315061, 663.96759, 555.499268) translate(-883.18, -187.7)" vector-effect="non-scaling-stroke"/></g><g><path style="stroke:none;stroke-width:1;stroke-dasharray:none;stroke-linecap:butt;stroke-dashoffset:0;stroke-linejoin:miter;stroke-miterlimit:4;fill:#b53a25;fill-rule:nonzero;opacity:1" stroke-linecap="round" d="M 1045.29 230.49 C 1029.99 223.73 1012.87 215.63 998.92 208.43 L 1035.83 194.43 L 1035.83 113.86 C 1001.62 102.6 989.91 95.8602 965.14 80.9902 C 965.14 80.9902 933.76 115.57 917.97 133.35 L 917.86 145.35 C 939.48 149.35 948.93 151.21 968.3 156.6 L 968.3 180.5 C 968.3 184.99 937.4 209.63 917.13 227.63 L 917.04 238.31 L 918.04 239.1 C 944.04 248.54 963.84 256.62 977.77 262.91 C 977.77 285.43 977.32 343.51 977.32 362.43 L 1045.32 370.53 C 1043 335.87 1043 270.12 1045.29 230.49 Z" transform="matrix(0.315061, 0, 0, 0.315061, 695.119324, 567.786621) translate(-981.18, -225.76)" vector-effect="non-scaling-stroke"/></g><g><path style="stroke:none;stroke-width:1;stroke-dasharray:none;stroke-linecap:butt;stroke-dashoffset:0;stroke-linejoin:miter;stroke-miterlimit:4;fill:#b53a25;fill-rule:nonzero;opacity:1" stroke-linecap="round" d="M 675.57 142.68 C 703.94 152.13 721.96 159.34 746.27 174.2 L 784.1 113 C 756.5 100.09 739.03 94.65 720.36 81.48 L 675.57 142.68 Z" transform="matrix(0.315061, 0, 0, 0.315061, 614.93634, 537.147156) translate(-729.84, -127.84)" vector-effect="non-scaling-stroke"/></g><g><path style="stroke:none;stroke-width:1;stroke-dasharray:none;stroke-linecap:butt;stroke-dashoffset:0;stroke-linejoin:miter;stroke-miterlimit:4;fill:#b53a25;fill-rule:nonzero;opacity:1" stroke-linecap="round" d="M 502.64 288.58 C 501.9 208.06 502.18 189.06 502.18 127.37 C 477.53 121.2 431 95.71 411.27 82 L 366.85 142.73 L 366.91 142.95 C 394.59 147.95 411.99 155.48 434.64 165.25 C 434.64 206.25 433.53 242.69 431.93 305.25 L 440.35 308.09 L 439.29 310.44 C 456.84 339.15 481.05 362.01 492.29 370.09 L 548.57 307.5 C 533.26 305.24 517.49 297.14 502.64 288.58 Z" transform="matrix(0.315061, 0, 0, 0.315061, 527.861206, 567.865479) translate(-457.71, -226.04)" vector-effect="non-scaling-stroke"/></g><g><path style="stroke:none;stroke-width:1;stroke-dasharray:none;stroke-linecap:butt;stroke-dashoffset:0;stroke-linejoin:miter;stroke-miterlimit:4;fill:#f74700;fill-rule:nonzero;opacity:1" stroke-linecap="round" d="M 1126.37 337.66 C 1126.37 253.91 1126.37 190.41 1125.48 135.47 L 1103.86 135.47 C 1111.96 115.66 1116.02 110.71 1124.12 90.8999 C 1123.67 72.4299 1122.77 54.4199 1121.87 36.8999 L 1198.42 45.8999 C 1197.53 62.5599 1196.62 76.9699 1196.17 90.8999 L 1235.79 90.8999 L 1229.49 135.47 L 1194.82 135.47 C 1193.92 173.3 1193.92 215.18 1193.92 288.58 L 1126.37 337.66 Z" transform="matrix(0.315061, 0, 0, 0.315061, 790.740356, 553.56958) translate(-1169.82, -187.28)" vector-effect="non-scaling-stroke"/></g><g><path style="stroke:none;stroke-width:1;stroke-dasharray:none;stroke-linecap:butt;stroke-dashoffset:0;stroke-linejoin:miter;stroke-miterlimit:4;fill:#f74700;fill-rule:nonzero;opacity:1" stroke-linecap="round" d="M 1525.81 317 L 1450.6 306.64 C 1423.14 299.89 1394.77 291.78 1372.71 278.72 C 1372.71 221.53 1372.71 189.56 1375.86 144.08 L 1376.17 144.13 L 1429 81 L 1300.67 134.14 C 1305.17 187.27 1305.17 232.75 1305.17 323.72 C 1330.38 330.02 1378.57 356.59 1397.48 370.09 L 1525.81 317 Z" transform="matrix(0.315061, 0, 0, 0.315061, 1081.108398, 566.72345) translate(-1413.24, -225.54)" vector-effect="non-scaling-stroke"/></g><g><path style="stroke:none;stroke-width:1;stroke-dasharray:none;stroke-linecap:butt;stroke-dashoffset:0;stroke-linejoin:miter;stroke-miterlimit:4;fill:#b53a25;fill-rule:nonzero;opacity:1" stroke-linecap="round" d="M 79.3199 90.8999 L 190.54 104.4 L 205.86 27.8499 L 71.1499 14.3799 L 79.2899 91.3099 L 79.3199 90.8999 Z" transform="matrix(0.315061, 0, 0, 0.315061, 880.611511, 518.282776) translate(-138.5, -59.39)" vector-effect="non-scaling-stroke"/></g><g><path style="stroke:none;stroke-width:1;stroke-dasharray:none;stroke-linecap:butt;stroke-dashoffset:0;stroke-linejoin:miter;stroke-miterlimit:4;fill:#b53a25;fill-rule:nonzero;opacity:1" stroke-linecap="round" d="M 220.72 399.81 C 216.21 318.75 216.21 260.66 216.21 169.7 C 190.99 163.4 138.31 136.83 119.4 123.31 C 119.4 123.31 93.5299 152.09 76.8599 170.66 L 76.8599 190 C 100.64 197.18 124.86 205.72 144.17 218.74 C 144.17 290.79 144.17 327.74 139.66 408.74 L 220.72 399.81 Z" transform="matrix(0.315061, 0, 0, 0.315061, 883.801453, 583.65802) translate(-148.79, -266.02)" vector-effect="non-scaling-stroke"/></g><g><path style="stroke:none;stroke-width:1;stroke-dasharray:none;stroke-linecap:butt;stroke-dashoffset:0;stroke-linejoin:miter;stroke-miterlimit:4;fill:#f74700;fill-rule:nonzero;opacity:1" stroke-linecap="round" d="M 79.2898 91.3099 L 71.1498 14.3799 L 70.7598 14.3799 C 50.0498 31.4999 24.8298 51.2999 2.31978 65.2599 C 6.81978 146.32 5.01977 276.01 0.509766 361.12 L 81.1198 361.12 C 78.9798 320.47 77.4198 273.62 76.8598 226.81 L 76.8598 144.93 L 79.2898 91.3099 Z" transform="matrix(0.315061, 0, 0, 0.315061, 849.577942, 558.453003) translate(-40.81, -187.75)" vector-effect="non-scaling-stroke"/></g><g><path style="stroke:none;stroke-width:1;stroke-dasharray:none;stroke-linecap:butt;stroke-dashoffset:0;stroke-linejoin:miter;stroke-miterlimit:4;fill:#b53a25;fill-rule:nonzero;opacity:1" stroke-linecap="round" d="M 1376 144.34 L 1380.41 144.87 C 1406.46 149.75 1432.95 156.25 1453.81 165.2 C 1453.81 207.52 1453.81 240.84 1450.65 306.59 L 1525.81 317 C 1521.31 235.94 1521.31 189.11 1521.31 127.42 C 1496.09 121.11 1447.9 94.54 1428.99 81.04 L 1376 144.34 Z" transform="matrix(0.315061, 0, 0, 0.315061, 1093.317139, 558.453003) translate(-1450.9, -199.02)" vector-effect="non-scaling-stroke"/></g><g><path style="stroke:none;stroke-width:1;stroke-dasharray:none;stroke-linecap:butt;stroke-dashoffset:0;stroke-linejoin:miter;stroke-miterlimit:4;fill:#f74700;fill-rule:nonzero;opacity:1" stroke-linecap="round" d="M 675.57 142.68 L 720.36 81.4503 L 719.71 80.9902 L 600.37 134.13 C 604.88 187.26 604.88 232.74 604.88 323.71 C 635.05 332.71 683.68 351.62 722.88 370.08 L 775.57 307.49 C 744.5 302.99 695.42 292.18 672.45 278.67 C 672.45 221.03 672.45 189.06 675.6 142.67 L 675.57 142.68 Z" transform="matrix(0.315061, 0, 0, 0.315061, 1163.49707, 565.975281) translate(-687.97, -225.54)" vector-effect="non-scaling-stroke"/></g><g><path style="stroke:none;stroke-width:1;stroke-dasharray:none;stroke-linecap:butt;stroke-dashoffset:0;stroke-linejoin:miter;stroke-miterlimit:4;fill:#b53a25;fill-rule:nonzero;opacity:1" stroke-linecap="round" d="M 675.57 142.68 C 703.94 152.13 721.96 159.34 746.27 174.2 L 784.1 113 C 756.5 100.09 739.03 94.65 720.36 81.48 L 675.57 142.68 Z" transform="matrix(0.315061, 0, 0, 0.315061, 1175.350952, 535.414246) translate(-729.84, -127.84)" vector-effect="non-scaling-stroke"/></g><g><path style="stroke:none;stroke-width:1;stroke-dasharray:none;stroke-linecap:butt;stroke-dashoffset:0;stroke-linejoin:miter;stroke-miterlimit:4;fill:#f74700;fill-rule:nonzero;opacity:1" stroke-linecap="round" d="M 2197 114.81 L 2196.42 90.9 L 2124.37 90.4399 C 2128.87 171.5 2128.87 200.77 2128.87 337.66 C 2155.87 349.37 2185.61 361.53 2197.32 370.08 L 2253.61 307.49 C 2237.85 306.14 2211.28 297.14 2196.42 288.58 C 2196.42 207.97 2196.42 182.76 2197.32 155.29 L 2197 114.81 Z" transform="matrix(0.315061, 0, 0, 0.315061, 1549.525391, 570.976624) translate(-2188.99, -230.26)" vector-effect="non-scaling-stroke"/></g><g><path style="stroke:none;stroke-width:1;stroke-dasharray:none;stroke-linecap:butt;stroke-dashoffset:0;stroke-linejoin:miter;stroke-miterlimit:4;fill:#b53a25;fill-rule:nonzero;opacity:1" stroke-linecap="round" d="M 1193.92 288.58 L 1126.37 337.66 C 1153.37 349.37 1180.87 361.53 1192.57 370.08 L 1248.86 307.49 C 1233.1 306.14 1208.78 297.14 1193.92 288.58 Z" transform="matrix(0.315061, 0, 0, 0.315061, 1234.661377, 600.868164) translate(-1187.61, -329.33)" vector-effect="non-scaling-stroke"/></g><g><path style="stroke:none;stroke-width:1;stroke-dasharray:none;stroke-linecap:butt;stroke-dashoffset:0;stroke-linejoin:miter;stroke-miterlimit:4;fill:#f74700;fill-rule:nonzero;opacity:1" stroke-linecap="round" d="M 1525.81 317 L 1450.6 306.64 C 1423.14 299.89 1394.77 291.78 1372.71 278.72 C 1372.71 221.53 1372.71 189.56 1375.86 144.08 L 1376.17 144.13 L 1429 81 L 1300.67 134.14 C 1305.17 187.27 1305.17 232.75 1305.17 323.72 C 1330.38 330.02 1378.57 356.59 1397.48 370.09 L 1525.81 317 Z" transform="matrix(0.315061, 0, 0, 0.315061, 1306.219604, 569.519531) translate(-1413.24, -225.54)" vector-effect="non-scaling-stroke"/></g><g><path style="stroke:none;stroke-width:1;stroke-dasharray:none;stroke-linecap:butt;stroke-dashoffset:0;stroke-linejoin:miter;stroke-miterlimit:4;fill:#f74700;fill-rule:nonzero;opacity:1" stroke-linecap="round" d="M 2057.51 218.3 L 2002.27 218.3 L 1947.34 218.3 C 1947.79 192.63 1948.69 170.12 1950.49 142.65 L 1950.82 142.75 L 1994.68 81 L 1875.34 134.14 C 1879.85 187.27 1879.85 232.75 1879.85 323.72 C 1910.01 332.72 1958.65 351.63 1997.85 370.09 L 2050.54 307.5 C 2019.47 303 1970.39 292.19 1947.42 278.68 L 1947.42 238.14 L 2004.61 260.66 C 2023.8 244.15 2033.71 235.15 2057.56 218.33" transform="matrix(0.315061, 0, 0, 0.315061, 1479.896851, 569.519531) translate(-1966.45, -225.54)" vector-effect="non-scaling-stroke"/></g><g><path style="stroke:none;stroke-width:1;stroke-dasharray:none;stroke-linecap:butt;stroke-dashoffset:0;stroke-linejoin:miter;stroke-miterlimit:4;fill:#b53a25;fill-rule:nonzero;opacity:1" stroke-linecap="round" d="M 2128.59 338.12 C 2155.47 349.76 2185.59 361.59 2197.28 370.12 L 2253.57 307.53 C 2238.68 306.25 2212.29 296.62 2197.09 288.53 L 2128.59 338.12 Z" transform="matrix(0.315061, 0, 0, 0.315061, 1550.155762, 600.828735) translate(-2191.08, -329.32)" vector-effect="non-scaling-stroke"/></g><g><path style="stroke:none;stroke-width:1;stroke-dasharray:none;stroke-linecap:butt;stroke-dashoffset:0;stroke-linejoin:miter;stroke-miterlimit:4;fill:#f74700;fill-rule:nonzero;opacity:1" stroke-linecap="round" d="M 1126.37 337.66 C 1126.37 253.91 1126.37 190.41 1125.48 135.47 L 1103.86 135.47 C 1111.96 115.66 1116.02 110.71 1124.12 90.8999 C 1123.67 72.4299 1122.77 54.4199 1121.87 36.8999 L 1198.42 45.8999 C 1197.53 62.5599 1196.62 76.9699 1196.17 90.8999 L 1235.79 90.8999 L 1229.49 135.47 L 1194.82 135.47 C 1193.92 173.3 1193.92 215.18 1193.92 288.58 L 1126.37 337.66 Z" transform="matrix(0.315061, 0, 0, 0.315061, 1229.108398, 557.547363) translate(-1169.82, -187.28)" vector-effect="non-scaling-stroke"/></g><g><path style="stroke:none;stroke-width:1;stroke-dasharray:none;stroke-linecap:butt;stroke-dashoffset:0;stroke-linejoin:miter;stroke-miterlimit:4;fill:#b53a25;fill-rule:nonzero;opacity:1" stroke-linecap="round" d="M 1376 144.34 L 1380.41 144.87 C 1406.46 149.75 1432.95 156.25 1453.81 165.2 C 1453.81 207.52 1453.81 240.84 1450.65 306.59 L 1525.81 317 C 1521.31 235.94 1521.31 189.11 1521.31 127.42 C 1496.09 121.11 1447.9 94.54 1428.99 81.04 L 1376 144.34 Z" transform="matrix(0.315061, 0, 0, 0.315061, 1317.601318, 560.855469) translate(-1450.9, -199.02)" vector-effect="non-scaling-stroke"/></g><g><path style="stroke:none;stroke-width:1;stroke-dasharray:none;stroke-linecap:butt;stroke-dashoffset:0;stroke-linejoin:miter;stroke-miterlimit:4;fill:#f74700;fill-rule:nonzero;opacity:1" stroke-linecap="round" d="M 1664 135 C 1666.62 77.1101 1665.7 30.2201 1666.75 0.850098 L 1595.6 23.3701 C 1596.95 104.37 1596.05 262.03 1596.05 323.73 C 1621.27 330.03 1669.46 356.6 1688.37 370.1 L 1807.73 317 L 1807.73 316.86 L 1732.28 308.57 L 1732.28 308.4 C 1704.05 303.4 1686.53 295.8 1663.63 285.92 C 1663.63 263.92 1663.63 205.77 1664.08 145.43 L 1664 135 Z" transform="matrix(0.315061, 0, 0, 0.315061, 1396.839111, 557.429321) translate(-1701.66, -185.48)" vector-effect="non-scaling-stroke"/></g><g><path style="stroke:none;stroke-width:1;stroke-dasharray:none;stroke-linecap:butt;stroke-dashoffset:0;stroke-linejoin:miter;stroke-miterlimit:4;fill:#b53a25;fill-rule:nonzero;opacity:1" stroke-linecap="round" d="M 1807.72 316.81 C 1803.23 263.74 1803.23 218.25 1803.23 127.37 C 1778 121.06 1742.43 99.4502 1709.56 80.9902 C 1709.56 80.9902 1678.76 117.45 1664.25 134.82 L 1664.25 145.42 C 1689.86 151.72 1714.59 160.26 1735.71 172.42 C 1735.71 229.53 1734.65 262.56 1732.3 308.54 L 1807.72 316.81 Z" transform="matrix(0.315061, 0, 0, 0.315061, 1407.196777, 560.776733) translate(-1735.99, -198.9)" vector-effect="non-scaling-stroke"/></g><g><path style="stroke:none;stroke-width:1;stroke-dasharray:none;stroke-linecap:butt;stroke-dashoffset:0;stroke-linejoin:miter;stroke-miterlimit:4;fill:#b53a25;fill-rule:nonzero;opacity:1" stroke-linecap="round" d="M 1950.6 143.1 L 1953.48 144.01 C 1972.71 150.37 1986.41 155.25 2001.85 163.01 L 2001.85 217.95 L 2057.48 218.37 C 2057.7 218.21 2058.48 217.58 2058.65 217.43 L 2059 113 C 2032.35 100.54 2012.8 93 1994.85 80.79 L 1950.6 143.1 Z" transform="matrix(0.315061, 0, 0, 0.315061, 1491.514893, 544.66925) translate(-2004.8, -149.58)" vector-effect="non-scaling-stroke"/></g><g><path style="stroke:none;stroke-width:1;stroke-dasharray:none;stroke-linecap:butt;stroke-dashoffset:0;stroke-linejoin:miter;stroke-miterlimit:4;fill:#b53a25;fill-rule:nonzero;opacity:1" stroke-linecap="round" d="M 2223.85 81.8901 L 2197.73 114.31 L 2197.09 115.02 L 2197.09 154.93 L 2200.3 156.58 C 2214.22 162.445 2227.81 169.078 2241 176.45 L 2295 114.76 C 2273.83 104.4 2245.91 92.6901 2223.85 81.8901 Z" transform="matrix(0.315061, 0, 0, 0.315061, 1567.286987, 537.97406) translate(-2246.05, -129.17)" vector-effect="non-scaling-stroke"/></g><g><path style="stroke:none;stroke-width:1;stroke-dasharray:none;stroke-linecap:butt;stroke-dashoffset:0;stroke-linejoin:miter;stroke-miterlimit:4;fill:#b53a25;fill-rule:nonzero;opacity:1" stroke-linecap="round" d="M 1281.72 740 L 1266.62 670.69 L 1188.42 684.02 C 1173.31 644.92 1166.64 622.7 1156.87 583.6 C 1179.08 569.83 1227.07 539.17 1247.51 522.29 C 1283.51 531.17 1319.94 541.84 1349.26 541.84 L 1330.6 614.26 C 1302.16 608.04 1261.28 592.49 1234.6 580.94 L 1259.92 655.58 L 1327.92 634.7 C 1339.92 670.7 1347.92 704.01 1355.92 746.7 C 1327.49 765.81 1301.27 792.46 1285.28 806.7 C 1238.18 797.82 1212.41 792.93 1163.09 792.93 C 1170.2 761.38 1183.09 736.06 1195.09 716.93 L 1281.72 740 Z" transform="matrix(0.315061, 0, 0, 0.315061, 1054.407104, 730.200867) translate(-1256.39, -664.5)" vector-effect="non-scaling-stroke"/></g><g><path style="stroke:none;stroke-width:1;stroke-dasharray:none;stroke-linecap:butt;stroke-dashoffset:0;stroke-linejoin:miter;stroke-miterlimit:4;fill:#b53a25;fill-rule:nonzero;opacity:1" stroke-linecap="round" d="M 1493.65 531.15 L 1532.75 531.15 L 1526.53 575.15 L 1492.32 575.15 C 1491.43 612.48 1491.43 653.79 1491.43 726.22 C 1506.1 734.66 1530.09 743.55 1545.64 744.88 L 1490.1 806.64 C 1478.55 798.2 1451.44 786.2 1424.78 774.64 C 1424.78 692 1424.78 629.35 1423.9 575.14 L 1402.57 575.14 C 1410.57 555.59 1414.57 550.7 1422.57 531.14 C 1422.13 512.93 1421.24 495.14 1420.35 477.82 L 1495.88 486.71 C 1495 503.16 1494.1 517.38 1493.65 531.15 Z" transform="matrix(0.315061, 0, 0, 0.315061, 1122.460205, 723.26947) translate(-1474.11, -642.23)" vector-effect="non-scaling-stroke"/></g><g><path style="stroke:none;stroke-width:1;stroke-dasharray:none;stroke-linecap:butt;stroke-dashoffset:0;stroke-linejoin:miter;stroke-miterlimit:4;fill:#f74700;fill-rule:nonzero;opacity:1" stroke-linecap="round" d="M 1424.78 774.64 C 1424.78 692 1424.78 629.35 1423.9 575.14 L 1402.57 575.14 C 1410.57 555.59 1414.57 550.7 1422.57 531.14 C 1422.13 512.93 1421.24 495.14 1420.35 477.82 L 1495.88 486.71 C 1495 503.15 1494.11 517.37 1493.66 531.14 L 1532.76 531.14 L 1526.54 575.14 L 1492.33 575.14 C 1491.44 612.47 1491.44 653.78 1491.44 726.21" transform="matrix(0.315061, 0, 0, 0.315061, 1120.451782, 718.228333) translate(-1467.66, -626.23)" vector-effect="non-scaling-stroke"/></g><g><path style="stroke:none;stroke-width:1;stroke-dasharray:none;stroke-linecap:butt;stroke-dashoffset:0;stroke-linejoin:miter;stroke-miterlimit:4;fill:#f74700;fill-rule:nonzero;opacity:1" stroke-linecap="round" d="M 1198.52 682.28 L 1268.36 652.98 L 1259.95 655.56 L 1234.63 580.92 L 1244.85 524.4 C 1223.19 541.62 1178.19 570.4 1156.85 583.58 C 1166.62 622.68 1173.29 644.9 1188.4 684 L 1198.52 682.28 Z" transform="matrix(0.315061, 0, 0, 0.315061, 1040.623169, 711.218323) translate(-1212.61, -604.2)" vector-effect="non-scaling-stroke"/></g><g><path style="stroke:none;stroke-width:1;stroke-dasharray:none;stroke-linecap:butt;stroke-dashoffset:0;stroke-linejoin:miter;stroke-miterlimit:4;fill:#f74700;fill-rule:nonzero;opacity:1" stroke-linecap="round" d="M 1281.72 740 L 1195.08 716.9 C 1183.08 736.01 1170.2 761.33 1163.08 792.9 C 1212.4 792.9 1238.17 797.79 1285.27 806.67 C 1301.05 792.67 1326.79 766.51 1354.79 747.47 L 1281.72 740 Z" transform="matrix(0.315061, 0, 0, 0.315061, 1055.194824, 760.486084) translate(-1258.93, -761.78)" vector-effect="non-scaling-stroke"/></g><g><path style="stroke:none;stroke-width:1;stroke-dasharray:none;stroke-linecap:butt;stroke-dashoffset:0;stroke-linejoin:miter;stroke-miterlimit:4;fill:#f74700;fill-rule:nonzero;opacity:1" stroke-linecap="round" d="M 1107 552.75 L 1106.09 657.67 C 1081.78 674.79 1071.87 683.8 1052.51 700.46 L 995.32 677.94 L 995.32 718.47 C 1018.32 731.98 1067.32 742.79 1098.44 747.29 L 1045.75 809.88 C 1006.58 791.42 957.94 772.51 927.75 763.5 C 927.75 672.5 927.75 627.05 923.25 573.92 L 1042.59 520.79 C 1061.52 534.29 1079.07 539.7 1107 552.75 Z M 1050.25 658.12 L 1050.25 603.19 C 1034.04 595.09 1019.18 589.19 998.47 582.48 C 996.67 609.94 995.77 632.48 995.32 658.12 L 1050.25 658.12 Z" transform="matrix(0.315061, 0, 0, 0.315061, 978.871216, 730.437073) translate(-1015.13, -665.34)" vector-effect="non-scaling-stroke"/></g><g><path style="stroke:none;stroke-width:1;stroke-dasharray:none;stroke-linecap:butt;stroke-dashoffset:0;stroke-linejoin:miter;stroke-miterlimit:4;fill:#b53a25;fill-rule:nonzero;opacity:1" stroke-linecap="round" d="M 1001.38 582.48 L 1001.31 583.42 C 1020.53 589.78 1034.81 595.47 1050.25 603.19 L 1050.25 658.12 L 1105.46 658.12 L 1106.09 657.67 L 1107 552.75 C 1080.35 540.3 1063.15 534.75 1045.2 522.58 L 1001.38 582.48 Z" transform="matrix(0.315061, 0, 0, 0.315061, 991.040283, 706.846802) translate(-1054.15, -590.35)" vector-effect="non-scaling-stroke"/></g><g><path style="stroke:none;stroke-width:1;stroke-dasharray:none;stroke-linecap:butt;stroke-dashoffset:0;stroke-linejoin:miter;stroke-miterlimit:4;fill:#b53a25;fill-rule:nonzero;opacity:1" stroke-linecap="round" d="M 831.645 814.341 L 832.286 813.965 C 831.395 710.524 832.286 674.394 834.949 563.855 L 858.977 563.855 L 878.11 513.139 L 836.291 513.139 L 841.5 470 C 868.642 461.384 890.046 447.036 910.5 444 C 909.619 443.486 855.543 410.699 844 396 C 832.426 405.632 792.7 418.315 766.009 431.519 C 767.34 457.379 768.682 484.757 769.573 513.15 L 769.132 513.15 L 750 563.866 L 771.355 563.866 C 771.605 572.722 771.846 581.213 772.076 589.441 L 763.125 589.441 C 764.026 652.14 764.026 776.019 764.026 871.596 C 791.058 884.96 787.955 879.231 799.668 889 L 863.743 829.657 C 847.965 828.105 846.523 825.354 831.645 815.597 L 831.645 814.341 Z" transform="matrix(0.315061, 0, 0, 0.315061, 920.978638, 723.505737) translate(-830.25, -642.5)" vector-effect="non-scaling-stroke"/></g><g><path style="stroke:none;stroke-width:1;stroke-dasharray:none;stroke-linecap:butt;stroke-dashoffset:0;stroke-linejoin:miter;stroke-miterlimit:4;fill:#b53a25;fill-rule:nonzero;opacity:1" stroke-linecap="round" d="M 841 477.5 L 865.5 464 L 909.065 492.312 L 939.538 445.77 C 939.523 445.498 939.415 444.501 939.381 444.277 L 851.773 387.44 C 826.868 403.099 779.984 424.52 760 433 L 841 477.5 Z" transform="matrix(0.315061, 0, 0, 0.315061, 927.082947, 659.705872) translate(-849.77, -439.88)" vector-effect="non-scaling-stroke"/></g><g><path style="stroke:none;stroke-width:1;stroke-dasharray:none;stroke-linecap:butt;stroke-dashoffset:0;stroke-linejoin:miter;stroke-miterlimit:4;fill:#f74700;fill-rule:nonzero;opacity:1" stroke-linecap="round" d="M 836.406 513.253 L 841 477 L 851 388 C 842.798 394.854 807.289 410.684 789.15 419.96 L 789.15 419.617 L 759.532 432.857 C 760.424 452.916 761.336 473.501 761.788 494.542 C 761.497 494.862 761.487 502.458 761.607 513.208 L 727.547 513.208 L 710 563.973 L 762.499 563.973 C 762.82 578.526 763.101 589.572 763.101 589.572 C 764.004 652.331 764.003 776.33 764.003 872 L 831.724 815.946 L 831.724 814.701 L 832.365 814.324 C 831.473 710.784 832.365 674.618 835.032 563.973 L 878.257 563.973 L 898 513.253 L 836.406 513.253 Z" transform="matrix(0.315061, 0, 0, 0.315061, 912.787048, 719.567505) translate(-804, -630)" vector-effect="non-scaling-stroke"/></g><g><path style="stroke:none;stroke-width:1;stroke-dasharray:none;stroke-linecap:butt;stroke-dashoffset:0;stroke-linejoin:miter;stroke-miterlimit:4;fill:#677662;fill-rule:nonzero;opacity:1" stroke-linecap="round" d="M 319.56 685.86 L 387 596.22 L 398.21 548.6 C 379.11 555.22 360.77 566.17 344.21 576.1 L 321.04 537.1 C 344.46 530.48 360.51 524.1 383.43 515.45 L 445.82 551.62 L 420.61 621.9 L 369.68 676.4 C 393.61 676.4 418.06 676.65 440.22 673.34 L 427.48 711.54 L 334.07 711.54 L 319.56 685.86 Z" transform="matrix(0.315061, 0, 0, 0.315061, 780.855225, 714.172119) translate(-382.69, -613.5)" vector-effect="non-scaling-stroke"/></g><g><path style="stroke:none;stroke-width:1;stroke-dasharray:none;stroke-linecap:butt;stroke-dashoffset:0;stroke-linejoin:miter;stroke-miterlimit:4;fill:#677662;fill-rule:nonzero;opacity:1" stroke-linecap="round" d="M 613.18 546.82 C 613.18 581.71 613.44 640.82 615.99 686.63 L 543.41 716.63 C 532.71 708.99 505.46 693.96 491.2 690.4 C 491.2 638.95 490.95 580.64 488.4 550.59 L 560.98 520.59 C 571.67 528.23 598.92 543.25 613.18 546.82 Z M 573.46 680.77 C 575.24 643.59 574.98 592.15 574.98 568.21 C 562.51 562.86 546.46 559.04 530.93 556.21 C 529.15 582.69 529.4 632.61 529.4 664.95 C 541.88 672.37 557.92 677 573.46 680.77 L 573.46 680.77 Z" transform="matrix(0.315061, 0, 0, 0.315061, 833.903687, 715.747253) translate(-552.19, -618.61)" vector-effect="non-scaling-stroke"/></g><g><path style="stroke:none;stroke-width:1;stroke-dasharray:none;stroke-linecap:butt;stroke-dashoffset:0;stroke-linejoin:miter;stroke-miterlimit:4;fill:#677662;fill-rule:nonzero;opacity:1" stroke-linecap="round" d="M 1651.08 685.86 L 1718.57 596.22 L 1729.77 548.6 C 1710.67 555.22 1692.34 566.17 1675.77 576.1 L 1652.6 537.1 C 1676.03 530.48 1692.07 524.1 1714.99 515.45 L 1777.38 551.62 L 1752.17 621.9 L 1701.24 676.4 C 1725.18 676.4 1749.63 676.65 1771.78 673.34 L 1759.05 711.54 L 1665.6 711.54 L 1651.08 685.86 Z" transform="matrix(0.315061, 0, 0, 0.315061, 1197.602295, 722.048584) translate(-1714.23, -613.5)" vector-effect="non-scaling-stroke"/></g><g><path style="stroke:none;stroke-width:1;stroke-dasharray:none;stroke-linecap:butt;stroke-dashoffset:0;stroke-linejoin:miter;stroke-miterlimit:4;fill:#677662;fill-rule:nonzero;opacity:1" stroke-linecap="round" d="M 1833.17 716.93 C 1833.17 697.07 1831.38 605.64 1831.38 571.27 L 1854.05 556.49 L 1819.92 556.49 L 1826.55 520.59 L 1872.38 520.59 L 1869.58 556.24 C 1869.84 612.01 1870.35 687.39 1872.38 711.84 L 1833.17 716.93 Z" transform="matrix(0.315061, 0, 0, 0.315061, 1238.835938, 723.663208) translate(-1846.15, -618.76)" vector-effect="non-scaling-stroke"/></g></svg>